<svg width="143" height="95" viewBox="0 0 143 95" fill="none" xmlns="http://www.w3.org/2000/svg">
<path d="M106.181 36.768L100.901 35.58C100.593 35.492 100.395 35.404 100.307 35.316C100.219 35.184 100.175 35.052 100.175 34.92C100.175 34.788 100.219 34.678 100.307 34.59C100.439 34.502 100.549 34.458 100.637 34.458H106.181C106.401 34.458 106.599 34.436 106.775 34.392C106.951 34.304 107.149 34.15 107.369 33.93L123.341 20.862C123.649 20.642 123.957 20.444 124.265 20.268C124.617 20.092 124.903 20.004 125.123 20.004C125.431 20.004 125.673 20.114 125.849 20.334C126.069 20.554 126.179 20.862 126.179 21.258V75.774C126.179 79.514 126.861 82.308 128.225 84.156C129.589 85.96 131.437 86.862 133.769 86.862C134.605 86.862 135.397 86.73 136.145 86.466C136.893 86.202 137.575 85.784 138.191 85.212C138.851 84.64 139.423 83.87 139.907 82.902C140.391 81.934 140.809 80.724 141.161 79.272C141.249 78.964 141.403 78.832 141.623 78.876C141.887 78.876 141.975 79.03 141.887 79.338C141.183 82.726 140.149 85.52 138.785 87.72C137.421 89.876 135.617 91.504 133.373 92.604C131.129 93.704 128.335 94.254 124.991 94.254C119.183 94.254 114.739 92.912 111.659 90.228C108.579 87.5 107.039 83.32 107.039 77.688V38.022C107.039 37.626 106.973 37.34 106.841 37.164C106.753 36.988 106.533 36.856 106.181 36.768ZM120.305 36.042L120.899 34.458H141.491C141.711 34.458 141.865 34.502 141.953 34.59C142.085 34.634 142.151 34.766 142.151 34.986C142.151 35.25 141.975 35.492 141.623 35.712C141.315 35.932 140.875 36.042 140.303 36.042H120.305Z" fill="white"/>
<path d="M63.8068 33.93V89.04C63.8068 89.656 63.9167 90.162 64.1367 90.558C64.4007 90.954 64.8188 91.218 65.3908 91.35L68.4267 91.944C68.9547 92.032 69.2188 92.208 69.2188 92.472C69.2188 92.824 68.9988 93 68.5588 93H39.1227C38.9467 93 38.7927 92.956 38.6607 92.868C38.5727 92.78 38.5287 92.648 38.5287 92.472C38.5287 92.384 38.5727 92.296 38.6607 92.208C38.7927 92.076 38.9907 91.988 39.2547 91.944L42.3567 91.35C42.9727 91.218 43.3907 90.954 43.6107 90.558C43.8307 90.162 43.9408 89.656 43.9408 89.04V41.52C43.9408 41.212 43.8527 40.97 43.6767 40.794C43.5447 40.618 43.3027 40.53 42.9507 40.53H39.5187C39.2547 40.53 39.0787 40.486 38.9907 40.398C38.9027 40.31 38.8587 40.178 38.8587 40.002C38.8587 39.826 38.9027 39.694 38.9907 39.606C39.1227 39.518 39.2767 39.452 39.4527 39.408L61.3647 33.336C61.8488 33.204 62.1787 33.138 62.3547 33.138C62.5307 33.094 62.7287 33.072 62.9487 33.072C63.2567 33.072 63.4768 33.16 63.6088 33.336C63.7408 33.468 63.8068 33.666 63.8068 33.93ZM62.1567 47.922L61.3647 47.064L63.8728 44.886C68.3608 40.882 72.3207 37.934 75.7528 36.042C79.1848 34.106 82.3088 33.138 85.1248 33.138C89.1288 33.138 92.2308 34.326 94.4308 36.702C96.6308 39.078 98.0388 42.84 98.6548 47.988L103.341 88.842C103.429 89.546 103.583 90.118 103.803 90.558C104.067 90.998 104.529 91.262 105.189 91.35L108.027 91.944C108.291 91.988 108.467 92.076 108.555 92.208C108.687 92.296 108.753 92.384 108.753 92.472C108.753 92.648 108.687 92.78 108.555 92.868C108.467 92.956 108.313 93 108.093 93H78.1287C77.6887 93 77.4687 92.824 77.4687 92.472C77.4687 92.252 77.7328 92.076 78.2608 91.944L81.3628 91.35C82.0228 91.218 82.4848 90.932 82.7488 90.492C83.0128 90.052 83.1008 89.502 83.0128 88.842L79.1187 50.1C78.8107 47.24 78.1728 45.15 77.2048 43.83C76.2368 42.51 74.7407 41.85 72.7167 41.85C71.3527 41.85 70.0107 42.202 68.6907 42.906C67.3707 43.566 66.0068 44.534 64.5988 45.81L62.1567 47.922Z" fill="white"/>
<path d="M31.97 89.238C31.97 89.766 32.19 90.184 32.63 90.492C33.114 90.756 33.818 90.976 34.742 91.152L39.23 91.878C39.89 92.01 40.22 92.208 40.22 92.472C40.22 92.648 40.154 92.78 40.022 92.868C39.89 92.956 39.692 93 39.428 93H1.08198C0.817978 93 0.619978 92.956 0.487978 92.868C0.355978 92.78 0.289978 92.648 0.289978 92.472C0.289978 92.208 0.619978 92.01 1.27998 91.878L5.76798 91.152C6.69198 90.976 7.37398 90.756 7.81398 90.492C8.29798 90.184 8.53998 89.766 8.53998 89.238V4.36199C8.53998 3.83399 8.29798 3.41599 7.81398 3.10799C7.37398 2.79999 6.69198 2.57999 5.76798 2.44799L1.27998 1.722C0.619978 1.63399 0.289978 1.43599 0.289978 1.12799C0.289978 0.99599 0.355978 0.885992 0.487978 0.797993C0.619978 0.665992 0.817978 0.599991 1.08198 0.599991H39.428C39.692 0.599991 39.89 0.665992 40.022 0.797993C40.154 0.885992 40.22 0.99599 40.22 1.12799C40.22 1.43599 39.89 1.63399 39.23 1.722L34.742 2.44799C33.818 2.57999 33.114 2.79999 32.63 3.10799C32.19 3.41599 31.97 3.83399 31.97 4.36199V89.238Z" fill="white"/>
</svg>
